<svg xmlns="http://www.w3.org/2000/svg" viewBox="0 0 512 512" role="img" aria-label="FareFlow app icon">
  <rect width="512" height="512" rx="112" fill="#293432"/>
  <path d="M135 86h242c27 0 49 22 49 49v258l-36-24-37 24-36-24-37 24-36-24-37 24-36-24-36 24V135c0-27 22-49 49-49z" fill="#f5f0df"/>
  <path d="M202 180h118M202 244h82M202 308h94" fill="none" stroke="#293432" stroke-width="20" stroke-linecap="round" opacity=".52"/>
  <circle cx="336" cy="336" r="74" fill="#2d6487"/>
  <path d="M292 330l94-28c8-2 16 6 13 14l-31 93c-3 8-14 9-18 2l-20-34-37-18c-8-4-8-26-1-29z" fill="#f5f0df"/>
  <path d="M328 375l22 35" fill="none" stroke="#293432" stroke-width="13" stroke-linecap="round" opacity=".35"/>
  <circle cx="153" cy="151" r="28" fill="#c85f3b"/>
  <circle cx="359" cy="151" r="28" fill="#4f8a68"/>
  <circle cx="154" cy="356" r="20" fill="#e7d18a" opacity=".9"/>
</svg>
