<svg xmlns="http://www.w3.org/2000/svg" viewBox="0 0 512 512" role="img" aria-label="FareFlow app icon">
  <rect width="512" height="512" rx="112" fill="#293432"/>
  <path d="M132 82h200c27 0 49 22 49 49v253l-31-21-31 21-31-21-31 21-31-21-31 21-31-21-32 21V131c0-27 22-49 49-49z" fill="#f5f0df"/>
  <path d="M190 174h116M190 236h86M190 298h102" fill="none" stroke="#293432" stroke-width="20" stroke-linecap="round" opacity=".52"/>
  <circle cx="340" cy="338" r="74" fill="#293432" stroke="#f5f0df" stroke-width="10"/>
  <g transform="translate(299 300) scale(3.38)" fill="none" stroke="#f5f0df" stroke-width="2" stroke-linecap="round" stroke-linejoin="round">
    <path d="M2 22h20"/>
    <path d="M6.36 17.4 4 17l-2-4 1.1-.55a2 2 0 0 1 1.8 0l.17.1a2 2 0 0 0 1.8 0L8 12 5 6l.9-.45a2 2 0 0 1 2.09.2l4.02 3a2 2 0 0 0 2.1.2l4.19-2.06a2.41 2.41 0 0 1 1.73-.17L21 7a1.4 1.4 0 0 1 .87 1.99l-.38.76c-.23.46-.6.84-1.07 1.08L7.58 17.2a2 2 0 0 1-1.22.18Z"/>
  </g>
  <circle cx="152" cy="148" r="27" fill="#c85f3b"/>
  <circle cx="348" cy="148" r="27" fill="#4f8a68"/>
  <circle cx="152" cy="347" r="19" fill="#e7d18a" opacity=".9"/>
</svg>
