<svg xmlns="http://www.w3.org/2000/svg" viewBox="0 0 1200 630" role="img" aria-labelledby="title desc">
  <title id="title">FareFlow product preview</title>
  <desc id="desc">A warm travel ledger interface with the FareFlow logo, trip summary, category analytics, and expense rows.</desc>
  <rect width="1200" height="630" rx="44" fill="#f5f0df"/>
  <path d="M82 502c246 70 554 18 815-155" fill="none" stroke="#d9ceb4" stroke-width="2"/>
  <path d="M128 123c0-35 28-63 63-63h818c35 0 63 28 63 63v384c0 35-28 63-63 63H191c-35 0-63-28-63-63z" fill="#eee6d2" stroke="#ddd1b8" stroke-width="2"/>
  <rect x="168" y="100" width="204" height="430" rx="32" fill="#fbf8ef" stroke="#ddd1b8" stroke-width="2"/>
  <rect x="410" y="100" width="622" height="430" rx="32" fill="#fbf8ef" stroke="#ddd1b8" stroke-width="2"/>

  <g transform="translate(215 126)">
    <rect width="110" height="110" rx="30" fill="#293432"/>
    <path d="M33 22h44c5 0 9 4 9 9v55l-8-5-8 5-8-5-8 5-8-5-8 5V31c0-5 4-9 9-9z" fill="#f5f0df"/>
    <path d="M46 42h27M46 55h18M46 68h22" fill="none" stroke="#293432" stroke-width="4" stroke-linecap="round" opacity=".52"/>
    <circle cx="73" cy="72" r="18" fill="#2d6487"/>
    <path d="M78 57l7 28-25-11z" fill="#f5f0df"/>
    <path d="M76 62l-5 14" fill="none" stroke="#293432" stroke-width="3" stroke-linecap="round" opacity=".35"/>
    <circle cx="35" cy="34" r="6" fill="#c85f3b"/>
    <circle cx="82" cy="34" r="6" fill="#4f8a68"/>
    <circle cx="37" cy="76" r="4" fill="#e7d18a" opacity=".9"/>
  </g>
  <text x="270" y="278" text-anchor="middle" fill="#293432" font-family="Georgia, serif" font-size="38" font-weight="700">FareFlow</text>
  <text x="270" y="306" text-anchor="middle" fill="#66706d" font-family="Arial, sans-serif" font-size="15">Offline-first</text>
  <text x="270" y="328" text-anchor="middle" fill="#66706d" font-family="Arial, sans-serif" font-size="15">travel ledger</text>
  <rect x="208" y="362" width="124" height="36" rx="18" fill="#293432"/>
  <text x="270" y="385" text-anchor="middle" fill="#f5f0df" font-family="Arial, sans-serif" font-size="14" font-weight="700">Add expense</text>
  <rect x="208" y="430" width="132" height="18" rx="9" fill="#dbe7df"/>
  <rect x="222" y="462" width="104" height="18" rx="9" fill="#d8e6ee"/>
  <rect x="208" y="494" width="142" height="18" rx="9" fill="#ecd3c5"/>

  <g transform="translate(450 132)">
    <text x="0" y="32" fill="#66706d" font-family="Arial, sans-serif" font-size="18">Current journey</text>
    <text x="0" y="74" fill="#293432" font-family="Georgia, serif" font-size="42" font-weight="700">Kyoto Spring Route</text>
    <rect y="112" width="256" height="126" rx="24" fill="#293432"/>
    <text x="26" y="152" fill="#c9d6d1" font-family="Arial, sans-serif" font-size="16">Trip total</text>
    <text x="26" y="204" fill="#fbf8ef" font-family="Georgia, serif" font-size="44" font-weight="700">¥8,371.64</text>
    <rect x="286" y="112" width="256" height="126" rx="24" fill="#eee6d2" stroke="#ddd1b8" stroke-width="2"/>
    <text x="312" y="152" fill="#66706d" font-family="Arial, sans-serif" font-size="16">Top category</text>
    <text x="312" y="204" fill="#293432" font-family="Georgia, serif" font-size="36" font-weight="700">Lodging</text>

    <rect y="280" width="542" height="178" rx="28" fill="#f5f0df" stroke="#ddd1b8" stroke-width="2"/>
    <text x="28" y="326" fill="#293432" font-family="Georgia, serif" font-size="24" font-weight="700">Category breakdown</text>
    <g transform="translate(346 308)">
      <circle cx="72" cy="72" r="54" fill="none" stroke="#e3dac3" stroke-width="17"/>
      <path d="M72 18a54 54 0 0 1 41 89" fill="none" stroke="#4f8a68" stroke-width="17"/>
      <path d="M113 107a54 54 0 0 1-76 4" fill="none" stroke="#c85f3b" stroke-width="17"/>
      <path d="M37 111a54 54 0 0 1 35-93" fill="none" stroke="#2d6487" stroke-width="17"/>
      <circle cx="72" cy="72" r="32" fill="#fbf8ef"/>
      <text x="72" y="70" text-anchor="middle" fill="#293432" font-family="Georgia, serif" font-size="24" font-weight="700">59%</text>
      <text x="72" y="91" text-anchor="middle" fill="#66706d" font-family="Arial, sans-serif" font-size="12">Lodging</text>
    </g>
    <g transform="translate(28 352)">
      <rect width="250" height="12" rx="6" fill="#e3dac3"/>
      <rect width="148" height="12" rx="6" fill="#4f8a68"/>
      <text y="38" fill="#293432" font-family="Arial, sans-serif" font-size="16">Lodging</text>
      <text x="206" y="38" fill="#293432" font-family="Arial, sans-serif" font-size="16" font-weight="700">59%</text>
      <rect y="62" width="250" height="12" rx="6" fill="#e3dac3"/>
      <rect y="62" width="96" height="12" rx="6" fill="#c85f3b"/>
      <text y="100" fill="#293432" font-family="Arial, sans-serif" font-size="16">Food</text>
      <text x="206" y="100" fill="#293432" font-family="Arial, sans-serif" font-size="16" font-weight="700">38%</text>
    </g>
  </g>
</svg>
